<svg width="36" height="35" viewBox="0 0 36 35" fill="none" xmlns="http://www.w3.org/2000/svg">
<rect x="0.5" width="35" height="35" rx="17.5" fill="#66F2A5"/>
<path d="M23 16.5H19V12.5C19 12.2348 18.8946 11.9804 18.7071 11.7929C18.5196 11.6054 18.2652 11.5 18 11.5C17.7348 11.5 17.4804 11.6054 17.2929 11.7929C17.1054 11.9804 17 12.2348 17 12.5V16.5H13C12.7348 16.5 12.4804 16.6054 12.2929 16.7929C12.1054 16.9804 12 17.2348 12 17.5C12 17.7652 12.1054 18.0196 12.2929 18.2071C12.4804 18.3946 12.7348 18.5 13 18.5H17V22.5C17 22.7652 17.1054 23.0196 17.2929 23.2071C17.4804 23.3946 17.7348 23.5 18 23.5C18.2652 23.5 18.5196 23.3946 18.7071 23.2071C18.8946 23.0196 19 22.7652 19 22.5V18.5H23C23.2652 18.5 23.5196 18.3946 23.7071 18.2071C23.8946 18.0196 24 17.7652 24 17.5C24 17.2348 23.8946 16.9804 23.7071 16.7929C23.5196 16.6054 23.2652 16.5 23 16.5Z" fill="#00030A"/>
</svg>
